<?xml version="1.0" encoding="utf-8"?>
<!-- Generator: Adobe Illustrator 25.1.0, SVG Export Plug-In . SVG Version: 6.00 Build 0)  -->
<svg version="1.1" id="ExitStudiosLogo" xmlns="http://www.w3.org/2000/svg" xmlns:xlink="http://www.w3.org/1999/xlink" x="0px"
	 y="0px" viewBox="0 0 2000 986.8" style="enable-background:new 0 0 2000 986.8;" xml:space="preserve">
<style type="text/css">
	.st0{fill:#00A652;}
	.st1{fill:#FFFFFF;}
</style>
<g id="BackGround">
	<rect x="61.6" y="95.4" class="st0" width="1876.9" height="796.1"/>
</g>
<g id="Man">
	<g>
		<path class="st1" d="M105,669.9v-12.6c0-31.9,28-57.7,62.7-57.7h1.7V171.1h419.3v594.1l-36.4,41.7h-83.6l45-48.6h-58.6l-47.8,48.6
			H131.8l37.7-41.7v-95.2H105z"/>
	</g>
	<g>
		<path class="st0" d="M166.2,608.4h121.9l9.3-121.9c0.4-5.4,1.9-10.7,4.4-15.6l43.9-85.6h-56.6l-41.6,64.6
			c-6.6,10.2-20.2,13.1-30.4,6.6c-10.2-6.6-13.1-20.2-6.6-30.4l46.9-72.7c5.5-7.2,13.4-12.2,22.3-14.2l3.4-0.7h125
			c20.7,0,37.2,0,55,23.4l54.3,64.3h71.4V473h-71.4H495l-49.8-56.5l-38.6,83.1l121,239.6c-61-1.5-63,0-81.4-35.1l-95-178.5l0,0
			l-5.6,113.3c0,12.7-10.3,23.1-23.1,23.1h-17.9H112.7C112.7,632.4,136.7,608.4,166.2,608.4z"/>
	</g>
	<g>
		<circle class="st0" cx="436.4" cy="279.7" r="46.9"/>
	</g>
</g>
<g id="Studios">
	<path class="st1" d="M717.8,801.9c-16.6-7.1-29.7-17.3-39.3-30.6c-9.6-13.3-14.6-29.1-14.9-47.2h63.8c0.9,12.2,5.2,21.8,13,28.9
		c7.8,7.1,18.5,10.6,32.1,10.6c13.9,0,24.8-3.3,32.7-10c7.9-6.7,11.9-15.4,11.9-26.2c0-8.8-2.7-16-8.1-21.7
		c-5.4-5.7-12.1-10.1-20.2-13.4c-8.1-3.3-19.2-6.9-33.4-10.8c-19.3-5.7-34.9-11.3-47-16.8c-12.1-5.5-22.4-13.9-31-25.1
		c-8.6-11.2-13-26.2-13-44.9c0-17.6,4.4-32.9,13.2-45.9c8.8-13,21.1-23,37-30c15.9-6.9,34-10.4,54.4-10.4c30.6,0,55.5,7.4,74.6,22.3
		c19.1,14.9,29.7,35.7,31.7,62.3h-65.5c-0.6-10.2-4.9-18.6-13-25.3c-8.1-6.7-18.8-10-32.1-10c-11.6,0-20.9,3-27.9,8.9
		c-6.9,6-10.4,14.6-10.4,25.9c0,7.9,2.6,14.5,7.9,19.8c5.2,5.2,11.8,9.5,19.6,12.8c7.8,3.3,18.8,7,33,11.3c19.3,5.7,35,11.3,47.2,17
		c12.2,5.7,22.7,14.2,31.5,25.5c8.8,11.3,13.2,26.2,13.2,44.6c0,15.9-4.1,30.6-12.3,44.2c-8.2,13.6-20.3,24.5-36.1,32.5
		c-15.9,8.1-34.7,12.1-56.6,12.1C753.1,812.5,734.4,809,717.8,801.9z"/>
	<path class="st1" d="M973.5,672.1V756c0,5.8,1.4,10.1,4.2,12.7c2.8,2.6,7.6,3.9,14.2,3.9h20.3v36.9h-27.5
		c-36.9,0-55.4-17.9-55.4-53.8v-83.6h-20.7v-36h20.7v-42.9h44.1v42.9h38.8v36H973.5z"/>
	<path class="st1" d="M1207.6,636.1v173.4h-44.1v-21.9c-5.6,7.5-13,13.4-22.1,17.7c-9.1,4.3-18.9,6.4-29.6,6.4
		c-13.6,0-25.6-2.9-36-8.6c-10.4-5.7-18.6-14.2-24.6-25.4c-5.9-11.2-8.9-24.5-8.9-39.9V636.1h43.8v95.5c0,13.8,3.4,24.4,10.3,31.8
		c6.9,7.4,16.3,11.1,28.2,11.1c12.1,0,21.6-3.7,28.5-11.1c6.9-7.4,10.3-18,10.3-31.8v-95.5H1207.6z"/>
	<path class="st1" d="M1250,675.6c7-13.6,16.5-24,28.6-31.3c12.1-7.3,25.6-11,40.4-11c11.3,0,22,2.5,32.2,7.4
		c10.2,4.9,18.4,11.4,24.4,19.6v-82.3h44.4v231.6h-44.4v-25.7c-5.4,8.6-13,15.4-22.8,20.7c-9.8,5.2-21.2,7.8-34.1,7.8
		c-14.6,0-28-3.8-40.1-11.3c-12.1-7.5-21.7-18.1-28.6-31.8c-7-13.7-10.5-29.4-10.5-47.1C1239.6,704.7,1243.1,689.1,1250,675.6z
		 M1369.8,695.4c-4.2-7.6-9.8-13.5-16.9-17.5c-7.1-4.1-14.7-6.1-22.8-6.1c-8.1,0-15.7,2-22.5,5.9c-6.9,4-12.5,9.8-16.7,17.4
		c-4.3,7.6-6.4,16.6-6.4,27.1c0,10.4,2.1,19.6,6.4,27.4c4.3,7.8,9.9,13.8,16.9,18c7,4.2,14.4,6.3,22.4,6.3c8.1,0,15.8-2,22.8-6.1
		c7.1-4.1,12.7-9.9,16.9-17.5c4.2-7.6,6.3-16.7,6.3-27.4C1376,712.2,1373.9,703.1,1369.8,695.4z"/>
	<path class="st1" d="M1466,608.1c-5.1-4.9-7.7-11-7.7-18.3c0-7.3,2.6-13.4,7.7-18.3c5.1-4.9,11.5-7.4,19.2-7.4
		c7.7,0,14.1,2.5,19.2,7.4c5.1,4.9,7.7,11,7.7,18.3c0,7.3-2.6,13.4-7.7,18.3c-5.1,4.9-11.5,7.4-19.2,7.4
		C1477.5,615.5,1471.1,613,1466,608.1z M1506.9,636.1v173.4H1463V636.1H1506.9z"/>
	<path class="st1" d="M1582,801.2c-13.4-7.4-23.8-17.9-31.5-31.5c-7.6-13.6-11.4-29.2-11.4-46.9c0-17.7,3.9-33.4,11.7-46.9
		c7.8-13.6,18.5-24,32.1-31.5c13.6-7.4,28.7-11.1,45.4-11.1c16.7,0,31.8,3.7,45.4,11.1c13.6,7.4,24.3,17.9,32.1,31.5
		c7.8,13.6,11.7,29.2,11.7,46.9c0,17.7-4,33.4-12,46.9c-8,13.6-18.9,24.1-32.6,31.5c-13.7,7.4-29,11.1-45.9,11.1
		C1610.4,812.3,1595.3,808.6,1582,801.2z M1649.4,768.4c7-3.9,12.6-9.6,16.7-17.4c4.2-7.7,6.3-17.1,6.3-28.2c0-16.5-4.3-29.2-13-38
		c-8.7-8.9-19.2-13.3-31.8-13.3c-12.5,0-23,4.4-31.5,13.3c-8.5,8.9-12.7,21.5-12.7,38c0,16.5,4.1,29.2,12.4,38
		c8.2,8.9,18.6,13.3,31.1,13.3C1635,774.2,1642.4,772.2,1649.4,768.4z"/>
	<path class="st1" d="M1777.9,804.7c-11.3-5.1-20.2-12.1-26.8-20.8c-6.6-8.8-10.2-18.5-10.8-29.1h44.1c0.8,6.7,4.1,12.2,9.9,16.6
		c5.7,4.4,12.9,6.6,21.4,6.6c8.3,0,14.9-1.7,19.6-5c4.7-3.3,7-7.6,7-12.8c0-5.6-2.9-9.9-8.6-12.7c-5.7-2.8-14.9-5.9-27.4-9.2
		c-12.9-3.1-23.5-6.4-31.8-9.7c-8.2-3.3-15.3-8.5-21.3-15.3c-5.9-6.9-8.9-16.2-8.9-27.9c0-9.6,2.8-18.4,8.3-26.3
		c5.5-7.9,13.5-14.2,23.8-18.8c10.3-4.6,22.5-6.9,36.5-6.9c20.7,0,37.1,5.2,49.5,15.5c12.3,10.3,19.1,24.3,20.3,41.8h-41.9
		c-0.6-6.9-3.5-12.4-8.6-16.4c-5.1-4.1-11.9-6.1-20.5-6.1c-7.9,0-14,1.5-18.3,4.4c-4.3,2.9-6.4,7-6.4,12.2c0,5.8,2.9,10.3,8.8,13.3
		c5.8,3,14.9,6.1,27.2,9.2c12.5,3.1,22.8,6.4,31,9.7c8.1,3.3,15.2,8.5,21.1,15.5c5.9,7,9,16.2,9.2,27.7c0,10-2.8,19-8.3,26.9
		c-5.5,7.9-13.5,14.1-23.8,18.6s-22.4,6.7-36.2,6.7C1801.9,812.3,1789.2,809.8,1777.9,804.7z"/>
</g>
<g id="Exit">
	<path class="st1" d="M723.2,218.5v74.4h99.9v47.2h-99.9v78.7h112.7v48.5H663.6V170.1h172.2v48.5H723.2z"/>
	<path class="st1" d="M977.9,467.3l-35.7-53.8l-31.6,53.8h-46.9l56.7-87L863,293.9h49.5l35.4,53.5l31.9-53.5h46.9l-57,86.4l57.6,87
		H977.9z"/>
	<path class="st1" d="M1054.1,265.9c-5.1-4.9-7.7-11-7.7-18.3c0-7.3,2.6-13.4,7.7-18.3c5.1-4.9,11.5-7.4,19.2-7.4
		c7.7,0,14.1,2.5,19.2,7.4c5.1,4.9,7.7,11,7.7,18.3c0,7.3-2.6,13.4-7.7,18.3c-5.1,4.9-11.5,7.4-19.2,7.4
		C1065.6,273.2,1059.2,270.8,1054.1,265.9z M1094.9,293.9v173.4h-43.8V293.9H1094.9z"/>
	<path class="st1" d="M1189.2,329.9v83.9c0,5.8,1.4,10.1,4.2,12.7c2.8,2.6,7.6,3.9,14.2,3.9h20.3v36.9h-27.5
		c-36.9,0-55.4-17.9-55.4-53.8v-83.6h-20.7v-36h20.7V251h44.1v42.9h38.8v36H1189.2z"/>
</g>
</svg>
