<?xml version="1.0" encoding="utf-8"?>
<!-- Generator: Adobe Illustrator 26.0.3, SVG Export Plug-In . SVG Version: 6.00 Build 0)  -->
<svg version="1.1" id="Layer_1" xmlns="http://www.w3.org/2000/svg" xmlns:xlink="http://www.w3.org/1999/xlink" x="0px" y="0px"
	 viewBox="0 0 1000 500" style="enable-background:new 0 0 1000 500;" xml:space="preserve">
<g>
	<path d="M35.3,80.8h28.6l10.6,103.5c1.3,14.5,2.1,24,2.8,40.6h0.8c2.9-16.6,5.1-26.2,8.4-40.4l15.4-59.7h21.9l14.8,59.7
		c3.4,14.1,5.4,23.7,8.4,40.4h1c0.9-16.7,1.3-26.2,2.6-40.4l10.2-103.8h27.2L164,252.6h-30.9l-15.1-65c-2.5-10.6-4.5-20.9-5.8-31.4
		h-0.8c-1.6,10.4-3.2,20.8-5.6,31.4l-15,65H60.6L35.3,80.8z"/>
	<path d="M192.5,80.8h28.6l10.6,103.5c1.3,14.5,2.1,24,2.8,40.6h0.8c2.9-16.6,5.1-26.2,8.4-40.4l15.4-59.7h21.9l14.8,59.7
		c3.4,14.1,5.4,23.7,8.4,40.4h1c0.9-16.7,1.3-26.2,2.6-40.4l10.2-103.8h27.2l-24.1,171.8h-30.9l-15.1-65
		c-2.5-10.6-4.5-20.9-5.8-31.4h-0.8c-1.6,10.4-3.2,20.8-5.6,31.4l-15,65h-30.2L192.5,80.8z"/>
	<path d="M363.9,230.5l15.4-18.1c13.1,12.3,30.4,20.3,49,20.3c21.7,0,33.8-10,33.8-23.8c0-16.8-12.5-21.4-29.5-28.6l-24.2-10.6
		c-17.5-6.9-36.7-19.6-36.7-44.9c0-26.7,24.1-47,57.9-47c21.2,0,40.6,8.4,53.9,21.5L470,116.1c-11.5-9.6-23.9-15.3-41.5-15.3
		c-18.1,0-30.2,8.4-30.2,22.4c0,14.9,14.8,20.3,29.9,26.2l23.3,10.3c21.5,8.4,37.6,20.9,37.6,46c0,27.5-23.3,50-62.2,50
		C402.3,255.7,380,246.1,363.9,230.5z"/>
	<path d="M570.1,103.1h-55.4V81h137.1v22.2h-55.4v149.4h-26.3V103.1z"/>
	<path d="M664.1,80.8h28.6l10.6,103.5c1.3,14.5,2.1,24,2.8,40.6h0.8c2.9-16.6,5.1-26.2,8.4-40.4l15.4-59.7h21.9l14.8,59.7
		c3.4,14.1,5.4,23.7,8.4,40.4h1c0.9-16.7,1.3-26.2,2.6-40.4l10.2-103.8h27.2l-24.1,171.8h-30.9l-15.1-65
		c-2.5-10.6-4.5-20.9-5.8-31.4h-0.8c-1.6,10.4-3.2,20.8-5.6,31.4l-15,65h-30.2L664.1,80.8z"/>
	<path d="M840.7,81h43.7c51.1,0,80.3,29.4,80.3,85c0,55.8-29.2,86.6-78.9,86.6h-45V81z M882.7,231.1c35.8,0,54.9-22.3,54.9-65.1
		c0-42.6-19-63.6-54.9-63.6h-15.6v128.7H882.7z"/>
	<path d="M54.5,405.4l9.8-14.3c12.7,8.7,27.4,14.2,46.1,14.2c16.6,0,24.5-6.6,24.5-14.7c0-7.7-4.5-12.5-31.7-18.1
		c-28.6-5.9-42-15.8-42-32.2c0-18.1,16.3-31.5,46.2-31.5c17.2,0,33.6,6.7,44.5,14.1l-10.3,13.8c-10.2-6.8-22.7-11.1-36-11.1
		c-16.1,0-22.3,6.4-22.3,13.8c0,8.5,8.6,11.8,29.9,16.3c35.2,7.7,44,16.8,44,33.7c0,18.1-17.5,33-49.5,33
		C87,422.2,67.8,414.5,54.5,405.4z"/>
	<path d="M216.4,376.7V329h-29.8v-16.4l30.7-1.1l2.9-34.3h18.3v34.3h51V329h-51v47.8c0,18.6,6.6,27.6,26.1,27.6
		c9.5,0,17.2-1.9,24.6-4.6l4.5,16.1c-9.7,3.4-20.4,6.3-34.2,6.3C227.2,422.2,216.4,403.9,216.4,376.7z"/>
	<path d="M321.6,378.5v-67.1h22v64.2c0,18.7,6.3,27.6,22.5,27.6c11.3,0,19.5-5,30.3-17.8v-74h22v108.1h-18.2l-1.8-18h-0.9
		c-10.6,12.2-22.9,20.7-39.3,20.7C333.1,422.2,321.6,406.6,321.6,378.5z"/>
	<path d="M450.8,365.6c0-35.2,23.2-56.9,48.2-56.9c12.6,0,22.1,4.9,31.1,13.2h0.5l-1.1-19v-40.4h22v156.9h-18l-1.8-13.4h-0.7
		c-8.6,8.8-21.1,16.1-34,16.1C469.3,422.2,450.8,401.5,450.8,365.6z M529.6,389.3v-51.2c-8.7-8.1-17-11.1-25.6-11.1
		c-16.9,0-30.7,14.6-30.7,38.3c0,24.6,10.9,38.4,29,38.4C512.1,403.8,521.1,399.1,529.6,389.3z"/>
	<path d="M638.7,329h-48.4v-17.6h70.4v108.1h-22V329z M631.5,274.6c0-9.3,6.9-15.7,16.4-15.7c9.5,0,16.4,6.4,16.4,15.7
		c0,9.5-6.9,15.7-16.4,15.7C638.4,290.2,631.5,284.1,631.5,274.6z"/>
	<path d="M716.4,365.6c0-36.2,25.4-56.9,53.9-56.9c28.5,0,53.9,20.7,53.9,56.9c0,35.8-25.4,56.5-53.9,56.5
		C741.8,422.2,716.4,401.5,716.4,365.6z M801.6,365.6c0-23.3-12.2-38.8-31.3-38.8S739,342.3,739,365.6c0,23.1,12.2,38.4,31.3,38.4
		S801.6,388.8,801.6,365.6z"/>
	<path d="M851.4,405.4l9.8-14.3c12.7,8.7,27.4,14.2,46.1,14.2c16.6,0,24.5-6.6,24.5-14.7c0-7.7-4.5-12.5-31.7-18.1
		c-28.6-5.9-42-15.8-42-32.2c0-18.1,16.3-31.5,46.2-31.5c17.2,0,33.6,6.7,44.5,14.1l-10.3,13.8c-10.2-6.8-22.7-11.1-36-11.1
		c-16.1,0-22.3,6.4-22.3,13.8c0,8.5,8.6,11.8,29.9,16.3c35.2,7.7,44,16.8,44,33.7c0,18.1-17.5,33-49.5,33
		C883.8,422.2,864.6,414.5,851.4,405.4z"/>
</g>
</svg>
